<svg preserveAspectRatio="none" overflow="visible" style="display: block;" width="730.56" height="106.531" viewBox="0 0 730.56 106.531" fill="none" xmlns="http://www.w3.org/2000/svg">
<g id="Group">
<g id="Group_2">
<path id="Vector" d="M53.3769 6.32104C52.7268 4.74096 51.2101 3.68758 49.5309 3.68758H40.7828C39.1036 3.68758 37.6139 4.71325 36.9368 6.26561L0.346259 93.2809C-0.845441 96.1084 1.18586 99.2408 4.19219 99.2408H14.8092C16.4884 99.2408 18.0051 98.2152 18.6551 96.6351L24.749 81.8045C25.399 80.2244 26.9157 79.1988 28.5949 79.1988H60.7167C62.3959 79.1988 63.9126 80.2244 64.5626 81.8045L70.6565 96.6351C71.3065 98.2152 72.8233 99.2408 74.5025 99.2408H85.0653C88.0445 99.2408 90.0758 96.1361 88.9112 93.3086L53.3498 6.29333L53.3769 6.32104ZM52.0227 64.0355H37.7223C34.7701 64.0355 32.7659 60.9863 33.8493 58.1865L42.787 35.0397C43.5454 33.0992 46.2267 33.0992 46.958 35.0397L55.8957 58.1865C56.9791 60.9863 54.9748 64.0355 52.0227 64.0355Z" fill="#2ED878"/>
<path id="Vector_2" d="M145.653 3.71562H89.9413C88.6955 3.71562 87.6934 4.74129 87.6934 6.01645V17.4651C87.6934 18.7402 88.6955 19.7659 89.9413 19.7659H106.436C107.681 19.7659 108.684 20.7916 108.684 22.0667V96.9958C108.684 98.2709 109.686 99.2966 110.932 99.2966H124.636C125.882 99.2966 126.884 98.2709 126.884 96.9958V22.0667C126.884 20.7916 127.886 19.7659 129.132 19.7659H145.626C146.872 19.7659 147.874 18.7402 147.874 17.4651V6.01645C147.874 4.74129 146.872 3.71562 145.626 3.71562H145.653Z" fill="#2ED878"/>
<path id="Vector_3" d="M213.145 3.71562H157.433C156.188 3.71562 155.186 4.74129 155.186 6.01645V17.4651C155.186 18.7402 156.188 19.7659 157.433 19.7659H173.928C175.174 19.7659 176.176 20.7916 176.176 22.0667V96.9958C176.176 98.2709 177.178 99.2966 178.424 99.2966H192.128C193.374 99.2966 194.376 98.2709 194.376 96.9958V22.0667C194.376 20.7916 195.378 19.7659 196.624 19.7659H213.118C214.364 19.7659 215.366 18.7402 215.366 17.4651V6.01645C215.366 4.74129 214.364 3.71562 213.118 3.71562H213.145Z" fill="#2ED878"/>
<path id="Vector_4" d="M377.303 63.9804C375.651 61.7073 376.599 58.4917 379.172 57.4383C381.068 56.6899 382.638 55.8028 383.939 54.8603C391.224 49.8428 394.853 41.6653 394.853 32.3511C394.853 25.1992 392.741 17.0216 385.618 10.8676C381.284 7.15299 374.703 3.71562 361.811 3.71562H337.029C335.783 3.71562 334.781 4.74129 334.781 6.01644V96.9958C334.781 98.2709 335.783 99.2966 337.029 99.2966H350.733C351.979 99.2966 352.981 98.2709 352.981 96.9958V60.9034C354.39 60.9034 355.69 61.6242 356.448 62.8161L378.901 97.4116C379.686 98.6035 380.986 99.3243 382.368 99.3243H394.528C397.968 99.3243 399.918 95.3325 397.887 92.505L377.276 64.0081L377.303 63.9804ZM358.182 47.7084H355.256C354.011 47.7084 353.008 46.6827 353.008 45.4075V21.2074C353.008 19.9322 354.011 18.9066 355.256 18.9066H358.479C361.838 18.9066 376.111 19.0452 376.111 33.2382C376.111 47.4312 361.702 47.7084 358.182 47.7084Z" fill="#2ED878"/>
<path id="Vector_5" d="M500.536 3.71531H486.831C485.585 3.71531 484.583 4.74098 484.583 6.01613V56.4401C484.583 60.3487 479.898 62.206 477.325 59.323L428.979 5.10134C428.194 4.21428 427.057 3.71531 425.892 3.71531H417.387C416.142 3.71531 415.14 4.74098 415.14 6.01613V96.9954C415.14 98.2706 416.142 99.2962 417.387 99.2962H431.092C432.338 99.2962 433.34 98.2706 433.34 96.9954V46.4329C433.34 42.5243 438.026 40.667 440.599 43.5499L488.944 97.8825C489.729 98.7696 490.867 99.2685 492.031 99.2685H500.536C501.782 99.2685 502.784 98.2429 502.784 96.9677V5.9884C502.784 4.71325 501.782 3.68758 500.536 3.68758V3.71531Z" fill="#2ED878"/>
<path id="Vector_6" d="M573.635 3.71562H526.346C525.1 3.71562 524.098 4.74129 524.098 6.01645V96.9958C524.098 98.2709 525.1 99.2966 526.346 99.2966H573.635C574.881 99.2966 575.883 98.2709 575.883 96.9958V85.5471C575.883 84.272 574.881 83.2463 573.635 83.2463H544.546C543.301 83.2463 542.299 82.2207 542.299 80.9455V59.462C542.299 58.1868 543.301 57.1611 544.546 57.1611H572.254C573.499 57.1611 574.501 56.1355 574.501 54.8603V43.4117C574.501 42.1365 573.499 41.1108 572.254 41.1108H544.546C543.301 41.1108 542.299 40.0852 542.299 38.81V22.0667C542.299 20.7916 543.301 19.7659 544.546 19.7659H573.635C574.881 19.7659 575.883 18.7402 575.883 17.4651V6.01645C575.883 4.74129 574.881 3.71562 573.635 3.71562Z" fill="#2ED878"/>
<path id="Vector_7" d="M658.056 3.71531H645.435C644.65 3.71531 643.918 4.13112 643.512 4.79641L626.07 33.7645C625.203 35.2337 623.118 35.2337 622.251 33.7645L604.809 4.79641C604.403 4.10339 603.671 3.71531 602.886 3.71531H586.663C584.902 3.71531 583.819 5.71119 584.767 7.23583L613.991 54.5274C614.424 55.2204 614.641 55.9965 614.641 56.8005V96.9677C614.641 98.2429 615.643 99.2686 616.888 99.2686H630.593C631.839 99.2686 632.841 98.2429 632.841 96.9677V56.8282C632.841 55.9965 633.085 55.1926 633.518 54.4996L661.55 10.2851C663.365 7.42987 661.361 3.68758 658.056 3.68758V3.71531Z" fill="#2ED878"/>
<path id="Vector_8" d="M722.597 49.98C717.83 45.5447 710.978 42.9667 703.692 40.3886C697.815 38.2264 694.728 37.0899 692.48 34.9554C690.232 32.9595 689.527 30.7973 689.527 28.4965C689.527 23.6176 692.615 17.325 702.419 17.325C705.426 17.325 710.924 17.9072 715.961 23.3959C716.909 24.4215 718.534 24.3384 719.374 23.2018L725.983 14.3312C726.66 13.4164 726.551 12.0304 725.739 11.2542C716.557 2.54991 706.32 1.52423 700.74 1.52423C680.021 1.52423 670.785 15.5786 670.785 29.6053C670.785 39.3353 675.119 44.6576 678.206 47.3743C682.973 51.671 688.85 53.9718 693.752 55.6905C699.061 57.5478 704.667 59.405 708.161 62.7038C710.68 65.1432 711.791 67.8599 711.791 71.2972C711.791 79.3085 705.642 84.4923 697.382 84.4923C691.423 84.4923 683.84 81.6648 679.154 74.2079C678.342 72.905 676.825 72.6833 675.714 73.7644L667.291 81.9697C666.452 82.7736 666.343 84.1042 667.048 85.019C672.302 92.1986 682.133 101.402 698.086 101.402C717.397 101.402 730.56 88.6504 730.56 70.0221C730.56 60.2644 726.768 53.8332 722.57 49.9523L722.597 49.98Z" fill="#2ED878"/>
</g>
<path id="Vector_9" d="M313.844 16.0503L295.291 5.71047C288.602 1.96817 281.045 0 273.462 0C265.878 0 258.349 1.96817 251.632 5.71047L233.079 16.078C229.612 18.0185 227.473 21.733 227.473 25.7802V52.9188C227.473 65.4486 232.185 77.119 240.771 85.7956C242.477 87.5142 244.319 89.122 246.269 90.5358C246.811 90.9239 247.352 91.312 247.921 91.6723L267.666 104.757C269.399 105.921 271.403 106.531 273.489 106.531C275.574 106.531 277.578 105.921 279.285 104.757L299.029 91.6723C299.571 91.312 300.139 90.9239 300.681 90.5358C302.631 89.122 304.473 87.542 306.179 85.7956C314.765 77.119 319.477 65.4208 319.477 52.9188V25.7802C319.477 21.733 317.338 17.9907 313.871 16.0503H313.844ZM300.708 31.2967V52.9465C300.708 60.3202 297.946 67.195 292.935 72.2678C291.933 73.2658 290.85 74.2083 289.712 75.0399C289.387 75.2617 289.062 75.4835 288.764 75.7052L273.462 85.851L258.159 75.7052C257.834 75.4835 257.536 75.2894 257.211 75.0399C256.074 74.2083 254.99 73.2658 253.988 72.2678C248.978 67.195 246.215 60.3202 246.215 52.9465V31.2967L260.569 23.2854C264.524 21.0677 268.993 19.9035 273.462 19.9035C277.93 19.9035 282.372 21.0677 286.326 23.2854L300.681 31.2967H300.708Z" fill="#2ED878"/>
</g>
</svg>
