<svg preserveAspectRatio="none" overflow="visible" style="display: block;" width="53.0001" height="50.7852" viewBox="0 0 53.0001 50.7852" fill="none" xmlns="http://www.w3.org/2000/svg">
<g id="Group">
<path id="Vector" d="M16.0911 43.7704C15.6642 43.7704 15.2291 43.6705 14.8314 43.481L14.6794 43.406C13.6154 42.8814 10.3819 41.2885 6.82147 38.4839C0.0379222 33.1537 -0.045362 26.8178 0.00669102 25.6018V5.15126C0.00669102 4.25803 0.508482 3.44808 1.31426 3.03999C5.2578 1.07863 10.4985 9.02414e-05 16.0703 9.02414e-05C21.642 9.02414e-05 26.8848 1.07863 30.8325 3.0379C31.6362 3.43559 32.1359 4.24553 32.1359 5.15126V9.09687L31.8111 9.16975C30.516 9.46124 29.2459 9.93805 28.03 10.5835L27.4178 10.9083V6.67328C24.2738 5.40944 20.2616 4.71401 16.0765 4.71401C11.8914 4.71401 7.86462 5.41152 4.7227 6.68161V25.6664C4.7227 25.7226 4.7227 25.783 4.71437 25.8559C4.69355 26.4305 4.71229 30.8321 9.73644 34.7757C11.677 36.3039 13.8091 37.6656 16.0807 38.8295C18.3481 37.6407 20.4781 36.2665 22.4124 34.7444C22.631 34.5737 22.858 34.3863 23.1037 34.1739L23.416 33.9053L23.6887 34.2156C24.5258 35.165 25.4856 36.0124 26.5392 36.7329L26.9722 37.0285L26.5871 37.3825C26.2019 37.7364 25.7792 38.0946 25.3295 38.4506C21.8377 41.199 18.7416 42.7668 17.5777 43.3582L17.4028 43.4498C16.9968 43.6621 16.5554 43.7683 16.0911 43.7683V43.7704Z" fill="white"/>
<path id="Vector_2" d="M35.3417 37.8739C32.6432 37.8739 30.0323 37.1035 27.7898 35.646C26.6592 34.9173 25.6432 34.0282 24.7707 33.0038C22.6491 30.524 21.4789 27.3654 21.4789 24.1111C21.4789 19.5346 23.7692 15.2683 27.6066 12.6969C28.86 11.8641 30.2051 11.2457 31.6105 10.8542C32.8181 10.519 34.0737 10.3504 35.3417 10.3504C42.981 10.3504 49.1961 16.5238 49.1961 24.1111C49.1961 31.6983 42.981 37.8718 35.3417 37.8718V37.8739ZM35.3417 15.0684C34.1382 15.0684 32.9743 15.2954 31.8791 15.743C30.4258 16.3323 29.1411 17.2901 28.1625 18.5081C26.8758 20.1197 26.1949 22.0581 26.1949 24.1111C26.1949 25.8018 26.6717 27.4529 27.5754 28.8833C28.2854 30.0056 29.2536 30.9821 30.3779 31.7067C31.8562 32.654 33.574 33.1558 35.3417 33.1558C40.3804 33.1558 44.4801 29.0978 44.4801 24.1111C44.4801 19.1244 40.3804 15.0664 35.3417 15.0664V15.0684Z" fill="#00BB7D"/>
<path id="Vector_3" d="M50.6406 50.7852C50.1263 50.7852 49.635 50.6207 49.2227 50.3104C45.4582 47.4746 40.5611 45.913 35.4349 45.913C30.3087 45.913 25.4282 47.4684 21.67 50.2938C21.2577 50.604 20.7684 50.7664 20.2541 50.7664C19.5046 50.7664 18.8175 50.4229 18.3677 49.8253C17.9888 49.3214 17.8285 48.701 17.918 48.0763C18.0055 47.4517 18.3323 46.8999 18.8362 46.5231C23.4065 43.0876 29.301 41.197 35.4349 41.197C41.5688 41.197 47.4841 43.0959 52.0606 46.5418C52.5645 46.9208 52.8893 47.4725 52.9768 48.0972C53.0642 48.7218 52.9039 49.3423 52.5249 49.8441C52.0752 50.4416 51.3881 50.7831 50.6406 50.7831V50.7852Z" fill="#00BB7D"/>
</g>
</svg>
